<svg width="162" height="155" viewBox="0 0 162 155" fill="none" xmlns="http://www.w3.org/2000/svg">
<path d="M72.9802 11.9231C74.6951 13.1723 76.2235 14.4655 77.7921 15.8974C76.6352 18.5269 75.1993 20.2469 73.1476 22.2584C72.5241 22.8736 71.9007 23.4889 71.2583 24.1228C70.5849 24.7795 69.9116 25.4362 69.2178 26.1128C68.5277 26.7926 67.8377 27.4724 67.1267 28.1728C64.9214 30.3444 62.7108 32.5107 60.4994 34.6763C58.2859 36.8483 56.0735 39.0214 53.8635 41.1968C52.4876 42.5507 51.1096 43.9025 49.7293 45.2519C49.1084 45.8622 48.4874 46.4724 47.8477 47.1012C47.2986 47.6388 46.7496 48.1764 46.184 48.7303C43.9064 51.1395 43.8746 53.1513 43.946 56.4142C44.1978 58.9049 44.8331 60.1248 46.5149 62C50.9809 65.2376 55.5323 65.9951 60.9505 65.1795C65.1097 63.9808 68.3336 62.6838 71.3763 59.6154C71.9056 59.6154 72.4349 59.6154 72.9802 59.6154C72.9802 59.0908 72.9802 58.5662 72.9802 58.0256C79.1207 52.2567 89.2253 42.9688 97.9419 42.6747C106.882 42.9324 112.131 48.607 117.991 54.6474C118.76 55.4225 119.53 56.1967 120.3 56.9699C123.485 60.1827 126.615 63.4286 129.576 66.8469C133.508 71.3783 137.896 75.4751 142.211 79.644C142.865 80.2839 143.519 80.9238 144.194 81.583C144.784 82.1545 145.374 82.7259 145.982 83.3146C148.474 86.0492 149.872 88.1143 150.271 91.8077C149.944 94.8376 149.524 96.2335 147.564 98.5641C144.066 100.85 141.289 101.658 137.139 100.949C132.104 97.3875 127.833 92.5941 123.514 88.2339C122.158 86.8752 120.801 85.5168 119.443 84.1586C117.325 82.0346 115.209 79.9087 113.097 77.7789C111.044 75.711 108.985 73.6506 106.923 71.5912C106.289 70.948 105.655 70.3048 105.002 69.642C104.413 69.0552 103.824 68.4685 103.216 67.8639C102.7 67.3441 102.183 66.8243 101.651 66.2887C100.233 64.9317 100.233 64.9317 97.8416 65.1795C97.8773 67.0307 97.8773 67.0307 98.6436 69.1538C99.7895 70.1606 100.943 71.1625 102.162 72.0818C104.232 73.7564 105.785 75.8479 107.465 77.8974C108.784 79.2398 110.123 80.5627 111.475 81.8718C112.546 82.9305 113.615 83.9905 114.683 85.0513C115.196 85.5595 115.709 86.0677 116.237 86.5913C116.783 87.1324 117.329 87.6734 117.891 88.2308C118.522 88.8548 119.152 89.4788 119.802 90.1217C121.272 91.5812 122.739 93.0443 124.2 94.5121C129.264 99.6334 129.264 99.6334 134.683 104.377C137.859 107.031 140.681 109.714 141.506 113.881C141.665 117.05 141.405 118.805 139.745 121.566C137.074 123.993 135.661 124.693 132.026 125.093C126.618 124.538 123.183 120.729 119.516 117.022C118.838 116.347 118.838 116.347 118.147 115.658C117.174 114.688 116.203 113.715 115.233 112.741C113.7 111.201 112.161 109.666 110.622 108.133C107.36 104.881 104.104 101.624 100.849 98.3654C97.0657 94.5781 93.2798 90.7934 89.4871 87.0152C87.9689 85.5001 86.4555 83.9803 84.9423 82.4603C84.0177 81.5381 83.0929 80.6162 82.1677 79.6944C81.7461 79.2683 81.3245 78.8422 80.8901 78.4032C79.8874 77.4091 78.8434 76.4563 77.7921 75.5128C77.2628 75.5128 76.7335 75.5128 76.1881 75.5128C76.5208 79.3566 78.3501 81.2685 81.0311 83.8407C81.4511 84.2561 81.871 84.6715 82.3037 85.0995C83.6903 86.4675 85.0877 87.824 86.4854 89.1809C87.4522 90.1311 88.4181 91.082 89.3833 92.0337C91.9244 94.5357 94.4746 97.0282 97.0271 99.5186C101.112 103.508 105.183 107.512 109.255 111.514C110.678 112.911 112.105 114.305 113.533 115.698C114.406 116.553 115.279 117.407 116.152 118.262C116.55 118.649 116.948 119.035 117.358 119.434C120.152 122.176 121.805 123.828 122.202 127.825C122.119 131.271 120.93 133.262 118.693 135.923C115.391 138.105 112.933 138.24 109.069 137.513C107.54 136.501 107.54 136.501 106.067 135.146C105.513 134.64 104.96 134.133 104.389 133.611C101.383 130.732 98.429 127.81 95.5014 124.854C94.152 123.502 92.8023 122.151 91.4524 120.8C89.3485 118.69 87.2466 116.579 85.1487 114.463C83.1081 112.407 81.0601 110.358 79.0107 108.311C78.3849 107.676 77.7592 107.041 77.1144 106.386C76.5253 105.8 75.9362 105.213 75.3292 104.608C74.816 104.092 74.3029 103.576 73.7742 103.044C71.9981 101.597 70.3324 100.891 68.1683 100.154C69.1941 105.444 72.8254 108.34 76.5672 111.94C77.2395 112.6 77.9117 113.26 78.6043 113.94C80.7488 116.042 82.9039 118.134 85.06 120.224C87.2169 122.328 89.3715 124.435 91.5243 126.543C92.8638 127.853 94.2061 129.161 95.5514 130.465C96.1563 131.054 96.7612 131.644 97.3844 132.251C97.9192 132.769 98.454 133.288 99.0049 133.822C100.838 135.749 101.04 136.599 101.25 139.301C101.028 142.595 100.515 144.33 98.6436 147.051C95.4227 149.179 92.8671 149.992 89.0198 149.436C84.4407 146.858 80.9572 143.264 77.2595 139.588C76.5782 138.917 75.8969 138.245 75.1949 137.554C73.336 135.721 71.4808 133.884 69.6275 132.045C68.0746 130.505 66.5193 128.967 64.9641 127.43C61.2912 123.798 57.6227 120.163 53.9567 116.524C50.188 112.784 46.4121 109.051 42.6325 105.322C39.3765 102.109 36.1252 98.8914 32.8775 95.67C30.9428 93.751 29.0064 91.8338 27.0654 89.9211C24.8985 87.7832 22.7394 85.6378 20.5821 83.4904C19.947 82.8671 19.312 82.2437 18.6577 81.6015C13.2639 76.2048 9.03149 70.6729 6.56623 63.4407C6.24679 62.5277 5.92734 61.6148 5.59822 60.6742C2.02422 48.6359 3.7783 37.004 9.72403 26.0817C16.3344 15.5376 26.0565 8.591 38.1097 5.29397C50.2928 3.00364 62.3928 5.50393 72.9802 11.9231Z" fill="white"/>
<path d="M138.743 11.9231C148.708 19.4262 155.62 29.0319 157.99 41.3333C159.213 54.3038 156.121 65.8503 148.116 76.3574C147.669 76.8656 147.223 77.3738 146.762 77.8974C144.181 76.7951 142.718 75.5712 140.936 73.4302C136.341 68.0542 131.306 63.103 126.308 58.0971C125.073 56.8564 123.844 55.6107 122.62 54.3602C120.833 52.5357 119.03 50.7275 117.224 48.9219C116.418 48.0897 116.418 48.0897 115.595 47.2407C110.92 42.6265 105.121 39.312 98.3428 39.2468C88.2635 39.683 80.2951 47.0944 73.306 53.6042C68.3706 58.1939 63.781 61.9636 56.7903 62.3974C52.6038 61.8533 50.2525 60.1404 47.3169 57.2308C46.9067 54.2935 46.9849 52.9314 48.7189 50.477C49.7048 49.5014 49.7048 49.5014 50.7106 48.506C51.4528 47.7605 52.195 47.0149 52.9598 46.2468C53.7819 45.4458 54.6045 44.6453 55.4275 43.8453C56.2703 43.0108 57.1122 42.1755 57.9533 41.3394C59.7211 39.5874 61.4969 37.8439 63.2791 36.1063C65.5432 33.8981 67.7894 31.673 70.03 29.4415C71.7695 27.712 73.5171 25.9906 75.2672 24.2716C76.0969 23.4552 76.9246 22.6368 77.7501 21.8162C95.0304 4.68005 116.82 -1.57248 138.743 11.9231Z" fill="white"/>
<path d="M31.2772 100.154C34.835 101.762 37.1979 104.111 39.9486 106.811C40.6829 107.499 40.6829 107.499 41.432 108.202C41.8905 108.651 42.349 109.1 42.8214 109.562C43.2419 109.968 43.6625 110.374 44.0958 110.793C44.9109 112.077 44.9109 112.077 44.7462 113.699C43.7714 116.081 42.1303 117.532 40.2995 119.33C39.6089 120.021 38.9183 120.711 38.2068 121.423C35.3063 123.864 33.0666 124.67 29.3224 125.143C25.5063 124.678 24.3428 123.486 21.6535 120.821C20.1626 117.865 20.3891 114.5 20.8515 111.282C22.6559 109.046 22.6559 109.046 24.8614 107.308C25.9347 105.986 27.0042 104.661 28.0693 103.333C29.1239 102.259 30.1887 101.194 31.2772 100.154Z" fill="white"/>
<path d="M48.8278 117.035C50.8402 117.754 51.8067 118.638 53.2941 120.153C53.7903 120.652 54.2865 121.152 54.7978 121.667C55.3064 122.191 55.815 122.715 56.3391 123.255C56.8601 123.782 57.3812 124.309 57.918 124.852C59.2017 126.153 60.4795 127.458 61.7525 128.769C60.3471 132.948 56.6271 135.267 52.9307 137.513C50.3205 138.246 48.316 138.271 45.7129 137.513C42.8623 135.934 41.1527 134.287 40.099 131.154C39.7357 126.292 40.5237 123.975 43.6233 120.283C46.8283 116.785 46.8283 116.785 48.8278 117.035Z" fill="white"/>
<path d="M64.1584 132.744C66.5101 133.794 68.1576 134.927 69.9602 136.749C70.6503 137.441 70.6503 137.441 71.3543 138.146C71.8247 138.626 72.2951 139.105 72.7797 139.599C73.2625 140.085 73.7453 140.571 74.2427 141.071C75.4295 142.266 76.6113 143.466 77.7921 144.667C76.3573 147.722 76.3573 147.722 74.8348 148.84C71.4015 149.943 68.4762 149.911 65.1609 148.492C62.6541 146.491 61.2327 144.758 60.6936 141.546C60.5139 138.394 60.7382 137.034 62.5545 134.333C63.0838 133.809 63.6131 133.284 64.1584 132.744Z" fill="white"/>
<path d="M15.2376 84.2564C17.5893 85.3066 19.2368 86.4394 21.0395 88.2618C21.7295 88.9534 21.7295 88.9534 22.4335 89.6591C22.9039 90.1386 23.3743 90.6181 23.8589 91.1122C24.3417 91.5979 24.8245 92.0835 25.3219 92.5839C26.5087 93.7789 27.6905 94.9787 28.8713 96.1795C27.4365 99.2348 27.4365 99.2348 25.914 100.353C22.4807 101.456 19.5554 101.424 16.2401 100.005C13.7334 98.0034 12.3119 96.2713 11.7728 93.059C11.5932 89.9069 11.8174 88.5464 13.6337 85.8462C14.163 85.3215 14.6923 84.7969 15.2376 84.2564Z" fill="white"/>
<path d="M47.3168 116.846C48.1108 117.108 48.9047 117.371 49.7227 117.641C46.5469 120.395 46.5469 120.395 43.3069 123.205C42.7776 122.943 42.2483 122.681 41.7029 122.41C43.5555 120.574 45.4081 118.738 47.3168 116.846Z" fill="white"/>
</svg>
